<?xml version="1.0" encoding="UTF-8" standalone="no"?><!-- Generator: Gravit.io --><svg xmlns="http://www.w3.org/2000/svg" xmlns:xlink="http://www.w3.org/1999/xlink" style="isolation:isolate" viewBox="-781.667 2510 30 30" width="30pt" height="30pt"><defs><clipPath id="_clipPath_6w4HKfn7QndsXTcfPHh0HSPyrp5LvsZs"><rect x="-781.667" y="2510" width="30" height="30"/></clipPath></defs><g clip-path="url(#_clipPath_6w4HKfn7QndsXTcfPHh0HSPyrp5LvsZs)"><g><rect x="-781.667" y="2510" width="30" height="30" transform="matrix(1,0,0,1,0,0)" fill="none"/><path d="M -779.855 2514.2 L -753.478 2514.2 C -752.478 2514.2 -751.667 2515.012 -751.667 2516.011 L -751.667 2536.689 C -751.667 2537.688 -752.478 2538.5 -753.478 2538.5 L -779.855 2538.5 C -780.855 2538.5 -781.667 2537.688 -781.667 2536.689 L -781.667 2516.011 C -781.667 2515.012 -780.855 2514.2 -779.855 2514.2 Z" style="stroke:none;fill:#EBEBEB;stroke-miterlimit:10;"/><circle vector-effect="non-scaling-stroke" cx="-778.6666666666652" cy="2514.499999999999" r="2.9999999999998863" fill="rgb(235,235,235)"/><circle vector-effect="non-scaling-stroke" cx="-766.6666666666629" cy="2514.499999999999" r="2.9999999999998863" fill="rgb(235,235,235)"/><rect x="-778.667" y="2511.5" width="12" height="4.5" transform="matrix(1,0,0,1,0,0)" fill="rgb(235,235,235)"/><rect x="-781.667" y="2514.5" width="18" height="14.1" transform="matrix(1,0,0,1,0,0)" fill="rgb(235,235,235)"/></g></g></svg>