<?xml version="1.0" encoding="UTF-8" standalone="no"?><!-- Generator: Gravit.io --><svg xmlns="http://www.w3.org/2000/svg" xmlns:xlink="http://www.w3.org/1999/xlink" style="isolation:isolate" viewBox="1126 1885 100 100" width="100pt" height="100pt"><defs><clipPath id="_clipPath_ZxdRG8WdoXYQdOsPbm38mseMPff11X3e"><rect x="1126" y="1885" width="100" height="100"/></clipPath></defs><g clip-path="url(#_clipPath_ZxdRG8WdoXYQdOsPbm38mseMPff11X3e)"><g><rect x="1126" y="1885" width="100" height="100" transform="matrix(1,0,0,1,0,0)" fill="none"/><path d="M 1132.037 1899 L 1219.963 1899 C 1223.295 1899 1226 1901.705 1226 1905.037 L 1226 1973.963 C 1226 1977.295 1223.295 1980 1219.963 1980 L 1132.037 1980 C 1128.705 1980 1126 1977.295 1126 1973.963 L 1126 1905.037 C 1126 1901.705 1128.705 1899 1132.037 1899 Z" style="stroke:none;fill:#EBEBEB;stroke-miterlimit:10;"/><circle vector-effect="non-scaling-stroke" cx="1136.0000000000007" cy="1899.9999999999993" r="10" fill="rgb(235,235,235)"/><circle vector-effect="non-scaling-stroke" cx="1175.9999999999998" cy="1899.9999999999993" r="10" fill="rgb(235,235,235)"/><rect x="1136" y="1890" width="40" height="15" transform="matrix(1,0,0,1,0,0)" fill="rgb(235,235,235)"/><rect x="1126" y="1900" width="60" height="47" transform="matrix(1,0,0,1,0,0)" fill="rgb(235,235,235)"/></g></g></svg>