<?xml version="1.0" encoding="UTF-8" standalone="no"?><!-- Generator: Gravit.io --><svg xmlns="http://www.w3.org/2000/svg" xmlns:xlink="http://www.w3.org/1999/xlink" style="isolation:isolate" viewBox="809.5 526.5 250 60" width="250pt" height="60pt"><defs><clipPath id="_clipPath_MYwxu465xq6J5G0Z5UdJ043UxaS7B4vQ"><rect x="809.5" y="526.5" width="250" height="60"/></clipPath></defs><g clip-path="url(#_clipPath_MYwxu465xq6J5G0Z5UdJ043UxaS7B4vQ)"><rect x="809.5" y="526.5" width="250" height="60" style="fill:rgb(0,0,0)" fill-opacity="0"/><g><rect x="809.5" y="526.5" width="250" height="60" transform="matrix(1,0,0,1,0,0)" fill="rgb(235,235,235)"/><text transform="matrix(1,0,0,1,880.375,563.336)" style="font-family:'Roboto';font-weight:400;font-size:20px;font-style:normal;fill:#191b1d;stroke:none;">Join Project</text></g><g><rect x="836.84" y="542.602" width="2" height="9.093" transform="matrix(1,0,0,1,0,0)" fill="rgb(0,0,0)"/><rect x="842.875" y="542.602" width="2" height="9.093" transform="matrix(1,0,0,1,0,0)" fill="rgb(0,0,0)"/><line x1="840.84" y1="563.398" x2="840.84" y2="570.398" vector-effect="non-scaling-stroke" stroke-width="2" stroke="rgb(0,0,0)" stroke-linejoin="miter" stroke-linecap="square" stroke-miterlimit="3"/><rect x="834.84" y="551.695" width="12" height="11.704" transform="matrix(1,0,0,1,0,0)" fill="rgb(255,255,255)"/></g></g></svg>