<?xml version="1.0" encoding="UTF-8" standalone="no"?><!-- Generator: Gravit.io --><svg xmlns="http://www.w3.org/2000/svg" xmlns:xlink="http://www.w3.org/1999/xlink" style="isolation:isolate" viewBox="915 535.5 42 42" width="42pt" height="42pt"><defs><clipPath id="_clipPath_iTdTKU9hD22elGA8eeqEIGVjDYvNhTNw"><rect x="915" y="535.5" width="42" height="42"/></clipPath></defs><g clip-path="url(#_clipPath_iTdTKU9hD22elGA8eeqEIGVjDYvNhTNw)"><rect x="915" y="535.5" width="42" height="42" transform="matrix(1,0,0,1,0,0)" fill="rgb(164,164,164)"/><clipPath id="_clipPath_IcatGWKMRpcXfoSfGhO0vSppFfyOMnxB"><rect x="921" y="541.5" width="30" height="30" transform="matrix(1,0,0,1,0,0)" fill="rgb(255,255,255)"/></clipPath><g clip-path="url(#_clipPath_IcatGWKMRpcXfoSfGhO0vSppFfyOMnxB)"><g><g><rect x="921" y="541.5" width="30" height="30" transform="matrix(1,0,0,1,0,0)" fill="none"/><path d=" M 922.812 545.7 L 949.189 545.7 C 950.189 545.7 951 546.512 951 547.511 L 951 568.189 C 951 569.188 950.189 570 949.189 570 L 922.812 570 C 921.812 570 921 569.188 921 568.189 L 921 547.511 C 921 546.512 921.812 545.7 922.812 545.7 Z " fill="rgb(255,255,255)"/><circle vector-effect="non-scaling-stroke" cx="924.0003333333343" cy="545.9999999999993" r="2.9999999999998863" fill="rgb(255,255,255)"/><circle vector-effect="non-scaling-stroke" cx="936.000333333337" cy="545.9999999999993" r="2.9999999999998863" fill="rgb(255,255,255)"/><rect x="924" y="543" width="12" height="4.5" transform="matrix(1,0,0,1,0,0)" fill="rgb(255,255,255)"/><rect x="921" y="546" width="18" height="14.1" transform="matrix(1,0,0,1,0,0)" fill="rgb(255,255,255)"/></g></g></g></g></svg>