<?xml version="1.0" encoding="UTF-8" standalone="no"?><!-- Generator: Gravit.io --><svg xmlns="http://www.w3.org/2000/svg" xmlns:xlink="http://www.w3.org/1999/xlink" style="isolation:isolate" viewBox="809.5 526.5 250 60" width="250pt" height="60pt"><defs><clipPath id="_clipPath_oEFh449VmEtva7YDppO4z05KrSOKWAC4"><rect x="809.5" y="526.5" width="250" height="60"/></clipPath></defs><g clip-path="url(#_clipPath_oEFh449VmEtva7YDppO4z05KrSOKWAC4)"><rect x="809.5" y="526.5" width="250" height="60" style="fill:rgb(0,0,0)" fill-opacity="0"/><g><rect x="809.5" y="526.5" width="250" height="60" transform="matrix(1,0,0,1,0,0)" fill="rgb(219,219,219)"/><text transform="matrix(1,0,0,1,877.377,563.336)" style="font-family:'Roboto';font-weight:400;font-size:20px;font-style:normal;fill:#191b1d;stroke:none;">Load Project</text></g><clipPath id="_clipPath_qpccufrlFi2Z6P3OKoQ5C9j5NOtAtqp4"><rect x="825.84" y="541.5" width="30" height="30" transform="matrix(1,0,0,1,0,0)" fill="rgb(255,255,255)"/></clipPath><g clip-path="url(#_clipPath_qpccufrlFi2Z6P3OKoQ5C9j5NOtAtqp4)"><g><g><rect x="825.84" y="541.5" width="30" height="30" transform="matrix(1,0,0,1,0,0)" fill="none"/><path d=" M 827.652 545.7 L 854.029 545.7 C 855.029 545.7 855.84 546.512 855.84 547.511 L 855.84 568.189 C 855.84 569.188 855.029 570 854.029 570 L 827.652 570 C 826.652 570 825.84 569.188 825.84 568.189 L 825.84 547.511 C 825.84 546.512 826.652 545.7 827.652 545.7 Z " fill="rgb(255,255,255)"/><circle vector-effect="non-scaling-stroke" cx="828.8400792954894" cy="545.9999999999993" r="2.9999999999998863" fill="rgb(255,255,255)"/><circle vector-effect="non-scaling-stroke" cx="840.8400792954922" cy="545.9999999999993" r="2.9999999999998863" fill="rgb(255,255,255)"/><rect x="828.84" y="543" width="12" height="4.5" transform="matrix(1,0,0,1,0,0)" fill="rgb(255,255,255)"/><rect x="825.84" y="546" width="18" height="14.1" transform="matrix(1,0,0,1,0,0)" fill="rgb(255,255,255)"/></g></g></g></g></svg>