<?xml version="1.0" encoding="UTF-8" standalone="no"?><!-- Generator: Gravit.io --><svg xmlns="http://www.w3.org/2000/svg" xmlns:xlink="http://www.w3.org/1999/xlink" style="isolation:isolate" viewBox="960 648.25 30 30" width="30pt" height="30pt"><defs><clipPath id="_clipPath_Fq9XEecH596zI0zVIgSkYFxS9jAXnFMe"><rect x="960" y="648.25" width="30" height="30"/></clipPath></defs><g clip-path="url(#_clipPath_Fq9XEecH596zI0zVIgSkYFxS9jAXnFMe)"><rect x="960" y="648.25" width="30" height="30" style="fill:rgb(0,0,0)" fill-opacity="0"/><clipPath id="_clipPath_vhkWJxVT2K4SEhDvdNKHhpJ1eTAgah0p"><rect x="960" y="648.25" width="30" height="30" transform="matrix(1,0,0,1,0,0)" fill="rgb(255,255,255)"/></clipPath><g clip-path="url(#_clipPath_vhkWJxVT2K4SEhDvdNKHhpJ1eTAgah0p)"><g><g><rect x="960" y="648.25" width="30" height="30" transform="matrix(1,0,0,1,0,0)" fill="none"/><path d=" M 961.812 652.45 L 988.189 652.45 C 989.189 652.45 990 653.262 990 654.261 L 990 674.939 C 990 675.938 989.189 676.75 988.189 676.75 L 961.812 676.75 C 960.812 676.75 960 675.938 960 674.939 L 960 654.261 C 960 653.262 960.812 652.45 961.812 652.45 Z " fill="rgb(255,255,255)"/><circle vector-effect="non-scaling-stroke" cx="963.0003333333348" cy="652.7499999999991" r="2.9999999999998863" fill="rgb(255,255,255)"/><circle vector-effect="non-scaling-stroke" cx="975.000333333337" cy="652.7499999999991" r="2.9999999999998863" fill="rgb(255,255,255)"/><rect x="963" y="649.75" width="12" height="4.5" transform="matrix(1,0,0,1,0,0)" fill="rgb(255,255,255)"/><rect x="960" y="652.75" width="18" height="14.1" transform="matrix(1,0,0,1,0,0)" fill="rgb(255,255,255)"/></g></g></g></g></svg>