<svg xmlns="http://www.w3.org/2000/svg" width="74" height="81"><g fill="none" fill-rule="evenodd" transform="translate(.48 .047)"><path stroke="#3D42EC" stroke-width="3.165" d="M12.134 45.897h48.535v32.708H12.134z"/><rect width="41.149" height="26.377" x="14.771" y="1.055" fill="#6FABF6" fill-rule="nonzero" rx="2.11"/><rect width="10.551" height="13.716" x="41.149" y="8.441" fill="#3D42EC" rx="2.11"/><path stroke="#3D42EC" stroke-width="3.165" d="M71.22 19.147 55.786 1.583H5.275a3.693 3.693 0 0 0-3.692 3.692v69.637a3.693 3.693 0 0 0 3.692 3.693h62.251a3.693 3.693 0 0 0 3.693-3.693V19.147Z"/><path fill="#6FABF6" fill-rule="nonzero" d="M12.661 42.204h47.48a2.11 2.11 0 0 1 2.11 2.11v3.165h-51.7v-3.165a2.11 2.11 0 0 1 2.11-2.11Z"/></g></svg>