<?xml version="1.0" encoding="UTF-8" standalone="no"?><!-- Generator: Gravit.io --><svg xmlns="http://www.w3.org/2000/svg" xmlns:xlink="http://www.w3.org/1999/xlink" style="isolation:isolate" viewBox="1068.5 1911.563 122 132" width="122pt" height="132pt"><defs><clipPath id="_clipPath_lB2UJ63SevizaC8LcKtTaPe0XHvU49OK"><rect x="1068.5" y="1911.563" width="122" height="132"/></clipPath></defs><g clip-path="url(#_clipPath_lB2UJ63SevizaC8LcKtTaPe0XHvU49OK)"><g><rect x="1079.5" y="1927.563" width="100" height="100" transform="matrix(1,0,0,1,0,0)" fill="none"/><path d=" M 1161.012 1927.563 L 1084.5 1927.563 L 1084.5 2027.563 L 1174.5 2027.563 L 1174.5 1941.8 L 1161.012 1927.563 Z " fill-rule="evenodd" fill="rgb(32,32,32)"/><path d=" M 1118.5 2004.5 C 1148.625 2004.5 1118.875 1977.5 1149.5 1977.5" fill="none" vector-effect="non-scaling-stroke" stroke-width="1" stroke="rgb(0,0,0)" stroke-linejoin="miter" stroke-linecap="square" stroke-miterlimit="3"/><path d=" M 1109.5 1952.5 C 1148.375 1952.5 1111.625 1977.563 1149.5 1977.563" fill="none" vector-effect="non-scaling-stroke" stroke-width="1" stroke="rgb(0,0,0)" stroke-linejoin="miter" stroke-linecap="square" stroke-miterlimit="3"/><path d="M 1105.094 1996.5 L 1116.906 1996.5 C 1117.786 1996.5 1118.5 1997.214 1118.5 1998.094 L 1118.5 2009.906 C 1118.5 2010.786 1117.786 2011.5 1116.906 2011.5 L 1105.094 2011.5 C 1104.214 2011.5 1103.5 2010.786 1103.5 2009.906 L 1103.5 1998.094 C 1103.5 1997.214 1104.214 1996.5 1105.094 1996.5 Z" style="stroke:none;fill:#EBEBEB;stroke-miterlimit:10;"/><path d="M 1151.094 1969.5 L 1162.906 1969.5 C 1163.786 1969.5 1164.5 1970.214 1164.5 1971.094 L 1164.5 1982.906 C 1164.5 1983.786 1163.786 1984.5 1162.906 1984.5 L 1151.094 1984.5 C 1150.214 1984.5 1149.5 1983.786 1149.5 1982.906 L 1149.5 1971.094 C 1149.5 1970.214 1150.214 1969.5 1151.094 1969.5 Z" style="stroke:none;fill:#EBEBEB;stroke-miterlimit:10;"/><path d="M 1096.094 1944.5 L 1107.906 1944.5 C 1108.786 1944.5 1109.5 1945.214 1109.5 1946.094 L 1109.5 1957.906 C 1109.5 1958.786 1108.786 1959.5 1107.906 1959.5 L 1096.094 1959.5 C 1095.214 1959.5 1094.5 1958.786 1094.5 1957.906 L 1094.5 1946.094 C 1094.5 1945.214 1095.214 1944.5 1096.094 1944.5 Z" style="stroke:none;fill:#EBEBEB;stroke-miterlimit:10;"/><defs><filter id="t4TpU0WZhQ5mVhs6jvNlT3vrX0GnTuPO" x="-200%" y="-200%" width="400%" height="400%" filterUnits="objectBoundingBox" color-interpolation-filters="sRGB"><feGaussianBlur xmlns="http://www.w3.org/2000/svg" in="SourceGraphic" stdDeviation="5.152330875406834"/><feOffset xmlns="http://www.w3.org/2000/svg" dx="0" dy="0" result="pf_100_offsetBlur"/><feFlood xmlns="http://www.w3.org/2000/svg" flood-color="#000000" flood-opacity="0.5"/><feComposite xmlns="http://www.w3.org/2000/svg" in2="pf_100_offsetBlur" operator="in" result="pf_100_dropShadow"/><feBlend xmlns="http://www.w3.org/2000/svg" in="SourceGraphic" in2="pf_100_dropShadow" mode="normal"/></filter></defs><g filter="url(#t4TpU0WZhQ5mVhs6jvNlT3vrX0GnTuPO)"><text transform="matrix(1,0,0,1,1109.679,2002.779)" style="font-family:'Open Sans';font-weight:700;font-size:65px;font-style:normal;fill:#6bdd00;stroke:none;">T</text></g></g></g></svg>