<?xml version="1.0" encoding="UTF-8" standalone="no"?><!-- Generator: Gravit.io --><svg xmlns="http://www.w3.org/2000/svg" xmlns:xlink="http://www.w3.org/1999/xlink" style="isolation:isolate" viewBox="1067.938 1911.563 122 132" width="122pt" height="132pt"><defs><clipPath id="_clipPath_S2TUcZwvOtJkm3xDBDzYoXhk9WRkpZ7f"><rect x="1067.938" y="1911.563" width="122" height="132"/></clipPath></defs><g clip-path="url(#_clipPath_S2TUcZwvOtJkm3xDBDzYoXhk9WRkpZ7f)"><g><rect x="1078.938" y="1927.563" width="100" height="100" transform="matrix(1,0,0,1,0,0)" fill="none"/><path d=" M 1160.45 1927.563 L 1083.938 1927.563 L 1083.938 2027.563 L 1173.938 2027.563 L 1173.938 1941.8 L 1160.45 1927.563 Z " fill-rule="evenodd" fill="rgb(32,32,32)"/><path d=" M 1117.938 2004.5 C 1148.063 2004.5 1118.313 1977.5 1148.938 1977.5" fill="none" vector-effect="non-scaling-stroke" stroke-width="1" stroke="rgb(0,0,0)" stroke-linejoin="miter" stroke-linecap="square" stroke-miterlimit="3"/><path d=" M 1108.938 1952.5 C 1147.813 1952.5 1111.063 1977.563 1148.938 1977.563" fill="none" vector-effect="non-scaling-stroke" stroke-width="1" stroke="rgb(0,0,0)" stroke-linejoin="miter" stroke-linecap="square" stroke-miterlimit="3"/><path d="M 1104.532 1996.5 L 1116.343 1996.5 C 1117.223 1996.5 1117.938 1997.214 1117.938 1998.094 L 1117.938 2009.906 C 1117.938 2010.786 1117.223 2011.5 1116.343 2011.5 L 1104.532 2011.5 C 1103.652 2011.5 1102.938 2010.786 1102.938 2009.906 L 1102.938 1998.094 C 1102.938 1997.214 1103.652 1996.5 1104.532 1996.5 Z" style="stroke:none;fill:#EBEBEB;stroke-miterlimit:10;"/><path d="M 1150.532 1969.5 L 1162.343 1969.5 C 1163.223 1969.5 1163.938 1970.214 1163.938 1971.094 L 1163.938 1982.906 C 1163.938 1983.786 1163.223 1984.5 1162.343 1984.5 L 1150.532 1984.5 C 1149.652 1984.5 1148.938 1983.786 1148.938 1982.906 L 1148.938 1971.094 C 1148.938 1970.214 1149.652 1969.5 1150.532 1969.5 Z" style="stroke:none;fill:#EBEBEB;stroke-miterlimit:10;"/><path d="M 1095.532 1944.5 L 1107.343 1944.5 C 1108.223 1944.5 1108.938 1945.214 1108.938 1946.094 L 1108.938 1957.906 C 1108.938 1958.786 1108.223 1959.5 1107.343 1959.5 L 1095.532 1959.5 C 1094.652 1959.5 1093.938 1958.786 1093.938 1957.906 L 1093.938 1946.094 C 1093.938 1945.214 1094.652 1944.5 1095.532 1944.5 Z" style="stroke:none;fill:#EBEBEB;stroke-miterlimit:10;"/><defs><filter id="EcLrJM7MGRAEVohvbtFXNZEB3lfi3npn" x="-200%" y="-200%" width="400%" height="400%" filterUnits="objectBoundingBox" color-interpolation-filters="sRGB"><feGaussianBlur xmlns="http://www.w3.org/2000/svg" in="SourceGraphic" stdDeviation="5.152330875406834"/><feOffset xmlns="http://www.w3.org/2000/svg" dx="0" dy="0" result="pf_100_offsetBlur"/><feFlood xmlns="http://www.w3.org/2000/svg" flood-color="#000000" flood-opacity="0.5"/><feComposite xmlns="http://www.w3.org/2000/svg" in2="pf_100_offsetBlur" operator="in" result="pf_100_dropShadow"/><feBlend xmlns="http://www.w3.org/2000/svg" in="SourceGraphic" in2="pf_100_dropShadow" mode="normal"/></filter></defs><g filter="url(#EcLrJM7MGRAEVohvbtFXNZEB3lfi3npn)"><text transform="matrix(1,0,0,1,1109.117,2002.779)" style="font-family:'Open Sans';font-weight:700;font-size:65px;font-style:normal;fill:#ff9f21;stroke:none;">T</text></g></g></g></svg>