<?xml version="1.0" encoding="UTF-8" standalone="no"?><!-- Generator: Gravit.io --><svg xmlns="http://www.w3.org/2000/svg" xmlns:xlink="http://www.w3.org/1999/xlink" style="isolation:isolate" viewBox="1078.938 1927.563 100 100" width="100pt" height="100pt"><defs><clipPath id="_clipPath_JgDXMaz32cPEVuIe8FHYNHTTRev3vzaa"><rect x="1078.938" y="1927.563" width="100" height="100"/></clipPath></defs><g clip-path="url(#_clipPath_JgDXMaz32cPEVuIe8FHYNHTTRev3vzaa)"><g><rect x="1078.938" y="1927.563" width="100" height="100" transform="matrix(1,0,0,1,0,0)" fill="none"/><path d=" M 1159.7 1927.563 L 1083.938 1927.563 L 1083.938 2027.563 L 1173.938 2027.563 L 1173.938 1941.8 L 1159.7 1927.563 Z " fill-rule="evenodd" fill="rgb(255,255,255)"/><path d="M 1091.246 1945.563 L 1107.874 1945.563 C 1108.804 1945.563 1109.56 1946.318 1109.56 1947.249 L 1109.56 1951.876 C 1109.56 1952.807 1108.804 1953.563 1107.874 1953.563 L 1091.246 1953.563 C 1090.315 1953.563 1089.56 1952.807 1089.56 1951.876 L 1089.56 1947.249 C 1089.56 1946.318 1090.315 1945.563 1091.246 1945.563 Z" style="stroke:none;fill:#7B7B7B;stroke-miterlimit:10;"/><path d="M 1138.258 1945.563 L 1165.992 1945.563 C 1167.169 1945.563 1168.125 1946.518 1168.125 1947.695 L 1168.125 1951.43 C 1168.125 1952.607 1167.169 1953.563 1165.992 1953.563 L 1138.258 1953.563 C 1137.08 1953.563 1136.125 1952.607 1136.125 1951.43 L 1136.125 1947.695 C 1136.125 1946.518 1137.08 1945.563 1138.258 1945.563 Z" style="stroke:none;fill:#7B7B7B;stroke-miterlimit:10;"/><path d=" M 1129.592 1949.081 L 1111.592 1949.081 L 1111.592 1950.044 L 1129.592 1950.044 L 1129.592 1952.063 L 1131.842 1950.813 L 1134.092 1949.563 L 1131.842 1948.312 L 1129.592 1947.063 L 1129.592 1949.081 Z " fill-rule="evenodd" fill="rgb(123,123,123)"/><path d="M 1091.246 1957.563 L 1107.874 1957.563 C 1108.804 1957.563 1109.56 1958.318 1109.56 1959.249 L 1109.56 1963.876 C 1109.56 1964.807 1108.804 1965.563 1107.874 1965.563 L 1091.246 1965.563 C 1090.315 1965.563 1089.56 1964.807 1089.56 1963.876 L 1089.56 1959.249 C 1089.56 1958.318 1090.315 1957.563 1091.246 1957.563 Z" style="stroke:none;fill:#7B7B7B;stroke-miterlimit:10;"/><path d="M 1138.258 1957.563 L 1165.992 1957.563 C 1167.169 1957.563 1168.125 1958.518 1168.125 1959.695 L 1168.125 1963.43 C 1168.125 1964.607 1167.169 1965.563 1165.992 1965.563 L 1138.258 1965.563 C 1137.08 1965.563 1136.125 1964.607 1136.125 1963.43 L 1136.125 1959.695 C 1136.125 1958.518 1137.08 1957.563 1138.258 1957.563 Z" style="stroke:none;fill:#7B7B7B;stroke-miterlimit:10;"/><clipPath id="_clipPath_oKskOz4GgvQ9c5Y3gOVclfPlyOsUhmNZ"><path d="M 1138.258 1957.563 L 1165.992 1957.563 C 1167.169 1957.563 1168.125 1958.518 1168.125 1959.695 L 1168.125 1963.43 C 1168.125 1964.607 1167.169 1965.563 1165.992 1965.563 L 1138.258 1965.563 C 1137.08 1965.563 1136.125 1964.607 1136.125 1963.43 L 1136.125 1959.695 C 1136.125 1958.518 1137.08 1957.563 1138.258 1957.563 Z" style="stroke:none;fill:#7B7B7B;stroke-miterlimit:10;"/></clipPath><g clip-path="url(#_clipPath_oKskOz4GgvQ9c5Y3gOVclfPlyOsUhmNZ)"><rect x="980.929" y="2029.563" width="39.262" height="20.135" transform="matrix(1,0,0,1,0,0)" fill="rgb(235,235,235)"/></g><path d=" M 1129.592 1961.081 L 1111.592 1961.081 L 1111.592 1962.044 L 1129.592 1962.044 L 1129.592 1964.063 L 1131.842 1962.813 L 1134.092 1961.563 L 1131.842 1960.312 L 1129.592 1959.063 L 1129.592 1961.081 Z " fill-rule="evenodd" fill="rgb(123,123,123)"/><path d="M 1091.246 1969.563 L 1107.874 1969.563 C 1108.804 1969.563 1109.56 1970.318 1109.56 1971.249 L 1109.56 1975.876 C 1109.56 1976.807 1108.804 1977.563 1107.874 1977.563 L 1091.246 1977.563 C 1090.315 1977.563 1089.56 1976.807 1089.56 1975.876 L 1089.56 1971.249 C 1089.56 1970.318 1090.315 1969.563 1091.246 1969.563 Z" style="stroke:none;fill:#7B7B7B;stroke-miterlimit:10;"/><path d="M 1138.258 1969.563 L 1165.992 1969.563 C 1167.169 1969.563 1168.125 1970.518 1168.125 1971.695 L 1168.125 1975.43 C 1168.125 1976.607 1167.169 1977.563 1165.992 1977.563 L 1138.258 1977.563 C 1137.08 1977.563 1136.125 1976.607 1136.125 1975.43 L 1136.125 1971.695 C 1136.125 1970.518 1137.08 1969.563 1138.258 1969.563 Z" style="stroke:none;fill:#7B7B7B;stroke-miterlimit:10;"/><path d=" M 1129.592 1973.081 L 1111.592 1973.081 L 1111.592 1974.044 L 1129.592 1974.044 L 1129.592 1976.063 L 1131.842 1974.813 L 1134.092 1973.563 L 1131.842 1972.312 L 1129.592 1971.063 L 1129.592 1973.081 Z " fill-rule="evenodd" fill="rgb(123,123,123)"/><circle vector-effect="non-scaling-stroke" cx="1099.5598619094098" cy="1985.5625" r="1" fill="rgb(123,123,123)"/><circle vector-effect="non-scaling-stroke" cx="1099.5598619094098" cy="1997.5625" r="1" fill="rgb(123,123,123)"/><circle vector-effect="non-scaling-stroke" cx="1099.5598619094098" cy="2009.5625" r="1" fill="rgb(123,123,123)"/></g></g></svg>